<svg width="48" height="65" viewBox="0 0 48 65" fill="none" xmlns="http://www.w3.org/2000/svg">
<path d="M39 18V24H9V18C9 9.71573 15.7157 3 24 3C32.2843 3 39 9.71573 39 18Z" stroke="black" stroke-width="6"/>
<path fill-rule="evenodd" clip-rule="evenodd" d="M24 65C37.2548 65 48 54.2548 48 41C48 27.7452 37.2548 17 24 17C10.7452 17 0 27.7452 0 41C0 54.2548 10.7452 65 24 65ZM24 31.6667C29.1546 31.6667 33.3333 35.8453 33.3333 41L42.6667 41C42.6667 51.3093 34.3094 59.6667 24 59.6667C13.6907 59.6667 5.33337 51.3093 5.33337 41L14.6666 41C14.6666 35.8453 18.8453 31.6667 24 31.6667Z" fill="black"/>
<circle cx="24" cy="41" r="5.33333" fill="black"/>
<rect x="22" y="42" width="4" height="8" rx="2" fill="black"/>
</svg>
