<svg width="150" height="150" viewBox="0 0 150 150" fill="none" xmlns="http://www.w3.org/2000/svg">
<path fill-rule="evenodd" clip-rule="evenodd" d="M149.299 81.0967H108.769C105.707 97.341 91.4431 109.629 74.3091 109.629C57.1751 109.629 42.9111 97.341 39.8493 81.0967H3.74119e-06C3.14945 119.566 35.3682 149.804 74.6493 149.804C113.93 149.804 146.149 119.566 149.299 81.0967ZM149.299 68.7069H108.89C106.104 52.1265 91.6816 39.4938 74.3091 39.4938C56.9365 39.4938 42.5145 52.1265 39.7279 68.707H0C3.14942 30.2379 35.3681 0 74.6493 0C113.93 0 146.149 30.2379 149.299 68.7069ZM95.0323 74.6202C95.0323 85.9728 85.8292 95.1759 74.4765 95.1759C63.1239 95.1759 53.9208 85.9728 53.9208 74.6202C53.9208 63.2675 63.1239 54.0644 74.4765 54.0644C85.8292 54.0644 95.0323 63.2675 95.0323 74.6202Z" fill="#0c2951"/>
</svg>
